<?xml version="1.0" standalone="no"?>
<!DOCTYPE svg PUBLIC "-//W3C//DTD SVG 20010904//EN"
 "http://www.w3.org/TR/2001/REC-SVG-20010904/DTD/svg10.dtd">
<svg version="1.0" xmlns="http://www.w3.org/2000/svg"
 width="225.000000pt" height="225.000000pt" viewBox="0 0 225.000000 225.000000"
 preserveAspectRatio="xMidYMid meet">

<g transform="translate(0.000000,225.000000) scale(0.100000,-0.100000)"
fill="#000000" stroke="none">
<path d="M945 2184 c-389 -70 -705 -337 -833 -705 -136 -387 -37 -820 253
-1112 478 -480 1281 -400 1655 166 68 103 112 202 148 336 22 84 25 116 25
256 0 140 -3 172 -25 256 -36 134 -80 233 -148 336 -61 93 -181 219 -265 279
-232 166 -537 237 -810 188z m558 -642 c350 -350 377 -380 377 -412 0 -32 -27
-62 -380 -415 l-380 -380 -380 380 c-349 350 -380 383 -380 414 0 31 31 65
377 412 208 208 380 379 383 379 3 0 175 -170 383 -378z"/>
<path d="M1005 1240 l-110 -110 113 -113 112 -112 112 112 113 113 -110 110
c-60 60 -112 110 -115 110 -3 0 -55 -50 -115 -110z"/>
</g>
</svg>
